<svg xmlns="http://www.w3.org/2000/svg" x="0px" y="0px"
width="48" height="48"
viewBox="0 0 172 172"
style=" fill:#000000;"><g fill="none" fill-rule="nonzero" stroke="none" stroke-width="1" stroke-linecap="butt" stroke-linejoin="miter" stroke-miterlimit="10" stroke-dasharray="" stroke-dashoffset="0" font-family="none" font-weight="none" font-size="none" text-anchor="none" style="mix-blend-mode: normal"><path d="M0,172v-172h172v172z" fill="none"></path><g><path d="M121.83333,150.5h-71.66667c-15.80608,0 -28.66667,-12.86058 -28.66667,-28.66667v-71.66667c0,-15.80608 12.86058,-28.66667 28.66667,-28.66667h71.66667c15.80608,0 28.66667,12.86058 28.66667,28.66667v71.66667c0,15.80608 -12.86058,28.66667 -28.66667,28.66667z" fill="#333333"></path><path d="M128.73483,62.66533l-23.33467,23.33467l23.33108,23.33108c0.15767,-0.58767 0.26875,-1.19325 0.26875,-1.83108v-43c0,-0.63783 -0.11108,-1.24342 -0.26517,-1.83467zM95.632,85.63808l28.036,-28.03958c-0.59125,-0.15408 -1.19683,-0.26517 -1.83467,-0.26517h-71.66667c-0.63783,0 -1.24342,0.11108 -1.83467,0.26517l28.036,28.03958c5.31408,5.30692 13.94992,5.30692 19.264,0zM86,96.78225c-5.16,0 -10.29492,-1.94217 -14.2975,-5.75125l-23.3705,23.3705c0.59125,0.15408 1.19683,0.26517 1.83467,0.26517h71.66667c0.63783,0 1.24342,-0.11108 1.83467,-0.26517l-23.3705,-23.3705c-4.00258,3.80908 -9.1375,5.75125 -14.2975,5.75125zM43.26517,62.66533c-0.15408,0.59125 -0.26517,1.19683 -0.26517,1.83467v43c0,0.63783 0.11108,1.24342 0.26517,1.83467l23.33467,-23.33467z" fill="#ffffff"></path></g></g></svg>