<svg xmlns="http://www.w3.org/2000/svg" x="0px" y="0px"
width="48" height="48"
viewBox="0 0 172 172"
style=" fill:#000000;"><g fill="none" fill-rule="nonzero" stroke="none" stroke-width="1" stroke-linecap="butt" stroke-linejoin="miter" stroke-miterlimit="10" stroke-dasharray="" stroke-dashoffset="0" font-family="none" font-weight="none" font-size="none" text-anchor="none" style="mix-blend-mode: normal"><path d="M0,172v-172h172v172z" fill="none"></path><g fill="#333333"><path d="M41.20833,21.5c-10.82086,0 -19.70833,8.88748 -19.70833,19.70833v89.58333c0,10.82086 8.88748,19.70833 19.70833,19.70833h89.58333c10.82086,0 19.70833,-8.88748 19.70833,-19.70833v-89.58333c0,-10.82086 -8.88748,-19.70833 -19.70833,-19.70833zM41.20833,32.25h89.58333c5.01031,0 8.95833,3.94802 8.95833,8.95833v89.58333c0,5.01031 -3.94802,8.95833 -8.95833,8.95833h-89.58333c-5.01031,0 -8.95833,-3.94802 -8.95833,-8.95833v-89.58333c0,-5.01031 3.94802,-8.95833 8.95833,-8.95833zM55.54167,46.58333c-4.94755,0 -8.95833,4.01078 -8.95833,8.95833c0,4.94755 4.01078,8.95833 8.95833,8.95833c4.94755,0 8.95833,-4.01078 8.95833,-8.95833c0,-4.94755 -4.01078,-8.95833 -8.95833,-8.95833zM50.16667,71.66667c-1.98158,0 -3.58333,1.60175 -3.58333,3.58333v46.58333c0,1.98158 1.60175,3.58333 3.58333,3.58333h10.75c1.98158,0 3.58333,-1.60175 3.58333,-3.58333v-46.58333c0,-1.98158 -1.60175,-3.58333 -3.58333,-3.58333zM75.25,71.66667c-1.98158,0 -3.58333,1.60175 -3.58333,3.58333v46.58333c0,1.98158 1.60175,3.58333 3.58333,3.58333h10.75c1.98158,0 3.58333,-1.60175 3.58333,-3.58333v-26.875c0,-4.94142 4.01692,-8.95833 8.95833,-8.95833c4.94142,0 8.95833,4.01692 8.95833,8.95833v26.875c0,1.98158 1.60175,3.58333 3.58333,3.58333h10.75c1.98158,0 3.58333,-1.60175 3.58333,-3.58333v-28.66667c0,-11.85725 -9.64275,-21.5 -21.5,-21.5c-5.51117,0 -10.52425,2.09989 -14.33333,5.52197v-1.93864c0,-1.98158 -1.60175,-3.58333 -3.58333,-3.58333z"></path></g></g></svg>