<svg xmlns="http://www.w3.org/2000/svg" x="0px" y="0px"
width="50" height="50"
viewBox="0 0 172 172"
style=" fill:#000000;"><g fill="none" fill-rule="nonzero" stroke="none" stroke-width="1" stroke-linecap="butt" stroke-linejoin="miter" stroke-miterlimit="10" stroke-dasharray="" stroke-dashoffset="0" font-family="none" font-weight="none" font-size="none" text-anchor="none" style="mix-blend-mode: normal"><path d="M0,172v-172h172v172z" fill="none"></path><g fill="#ff570a"><path d="M86,3.44c-30.34187,0 -55.04,24.69813 -55.04,55.04c0,29.22656 50.12188,102.04438 52.245,105.135c0.645,0.92719 1.66625,1.505 2.795,1.505c1.12875,0 2.15,-0.57781 2.795,-1.505c2.12313,-3.09062 52.245,-75.90844 52.245,-105.135c0,-30.34187 -24.69812,-55.04 -55.04,-55.04zM86,30.96c15.19781,0 27.52,12.32219 27.52,27.52c0,15.19781 -12.32219,27.52 -27.52,27.52c-15.19781,0 -27.52,-12.32219 -27.52,-27.52c0,-15.19781 12.32219,-27.52 27.52,-27.52zM86,44.72c-7.60562,0 -13.76,6.15438 -13.76,13.76c0,7.60563 6.15438,13.76 13.76,13.76c7.60563,0 13.76,-6.15437 13.76,-13.76c0,-1.935 -0.36281,-3.70875 -1.075,-5.375c-0.94062,1.19594 -2.43219,1.935 -4.085,1.935c-2.84875,0 -5.16,-2.31125 -5.16,-5.16c0,-1.65281 0.73906,-3.14437 1.935,-4.085c-1.66625,-0.71219 -3.44,-1.075 -5.375,-1.075z"></path></g></g></svg>